<mxfile host="65bd71144e">
    <diagram id="nD3TO6qa1tE4uWoDBF-U" name="Aggregator">
        <mxGraphModel dx="1672" dy="1828" grid="1" gridSize="10" guides="1" tooltips="1" connect="1" arrows="1" fold="1" page="1" pageScale="1" pageWidth="850" pageHeight="1100" math="0" shadow="0">
            <root>
                <mxCell id="0"/>
                <mxCell id="1" parent="0"/>
                <mxCell id="3" value="" style="line;strokeWidth=4;rotatable=0;dashed=0;labelPosition=right;align=left;verticalAlign=middle;spacingTop=0;spacingLeft=6;points=[];portConstraint=eastwest;gradientColor=#ffffff;strokeColor=none;" parent="1" vertex="1">
                    <mxGeometry x="170" y="130" width="430" height="10" as="geometry"/>
                </mxCell>
                <mxCell id="5" style="edgeStyle=none;html=1;shape=link;startArrow=none;" parent="1" source="21" edge="1">
                    <mxGeometry relative="1" as="geometry">
                        <mxPoint x="825" y="330" as="targetPoint"/>
                        <Array as="points"/>
                    </mxGeometry>
                </mxCell>
                <mxCell id="4" value="" style="ellipse;shape=doubleEllipse;html=1;dashed=0;whitespace=wrap;aspect=fixed;strokeWidth=4;gradientColor=#ffffff;" parent="1" vertex="1">
                    <mxGeometry x="110" y="100" width="60" height="60" as="geometry"/>
                </mxCell>
                <mxCell id="10" value="Start" style="text;html=1;align=center;verticalAlign=middle;resizable=0;points=[];autosize=1;strokeColor=none;fillColor=none;" parent="1" vertex="1">
                    <mxGeometry x="120" y="160" width="40" height="20" as="geometry"/>
                </mxCell>
                <mxCell id="9" value="Blockchain Crawler&lt;br&gt;(Uniswap only)&amp;nbsp;" style="points=[[0.145,0.145,0],[0.5,0,0],[0.855,0.145,0],[1,0.5,0],[0.855,0.855,0],[0.5,1,0],[0.145,0.855,0],[0,0.5,0]];shape=mxgraph.bpmn.event;html=1;verticalLabelPosition=bottom;labelBackgroundColor=#ffffff;verticalAlign=top;align=center;perimeter=ellipsePerimeter;outlineConnect=0;aspect=fixed;outline=standard;symbol=general;fillColor=#004C99;" parent="1" vertex="1">
                    <mxGeometry x="270" y="105" width="50" height="50" as="geometry"/>
                </mxCell>
                <mxCell id="11" value="" style="edgeStyle=none;html=1;shape=link;endArrow=none;" parent="1" source="4" target="9" edge="1">
                    <mxGeometry relative="1" as="geometry">
                        <mxPoint x="1130" y="130" as="targetPoint"/>
                        <mxPoint x="169.9992191855473" y="129.78355541713177" as="sourcePoint"/>
                    </mxGeometry>
                </mxCell>
                <mxCell id="12" value="&lt;b&gt;Aggregator V1&lt;/b&gt;" style="points=[[0.145,0.145,0],[0.5,0,0],[0.855,0.145,0],[1,0.5,0],[0.855,0.855,0],[0.5,1,0],[0.145,0.855,0],[0,0.5,0]];shape=mxgraph.bpmn.event;html=1;verticalLabelPosition=bottom;labelBackgroundColor=#ffffff;verticalAlign=top;align=center;perimeter=ellipsePerimeter;outlineConnect=0;aspect=fixed;outline=standard;symbol=general;fillColor=#f5f5f5;fontColor=#333333;strokeColor=#666666;" parent="1" vertex="1">
                    <mxGeometry x="410" y="105" width="50" height="50" as="geometry"/>
                </mxCell>
                <mxCell id="13" value="" style="edgeStyle=none;html=1;shape=link;startArrow=none;endArrow=none;" parent="1" source="9" target="12" edge="1">
                    <mxGeometry relative="1" as="geometry">
                        <mxPoint x="1130" y="130" as="targetPoint"/>
                        <mxPoint x="319.9990837785522" y="129.7859667484713" as="sourcePoint"/>
                    </mxGeometry>
                </mxCell>
                <mxCell id="14" value="Deploy on local VPS" style="points=[[0.145,0.145,0],[0.5,0,0],[0.855,0.145,0],[1,0.5,0],[0.855,0.855,0],[0.5,1,0],[0.145,0.855,0],[0,0.5,0]];shape=mxgraph.bpmn.event;html=1;verticalLabelPosition=bottom;labelBackgroundColor=#ffffff;verticalAlign=top;align=center;perimeter=ellipsePerimeter;outlineConnect=0;aspect=fixed;outline=standard;symbol=general;fillColor=#99004D;" parent="1" vertex="1">
                    <mxGeometry x="530" y="105" width="50" height="50" as="geometry"/>
                </mxCell>
                <mxCell id="16" value="" style="edgeStyle=none;html=1;shape=link;startArrow=none;endArrow=none;" parent="1" source="12" target="14" edge="1">
                    <mxGeometry relative="1" as="geometry">
                        <mxPoint x="1130" y="130" as="targetPoint"/>
                        <mxPoint x="459.9986770512802" y="129.74281196449306" as="sourcePoint"/>
                    </mxGeometry>
                </mxCell>
                <mxCell id="17" value="R&amp;amp;D on known bugs" style="points=[[0.145,0.145,0],[0.5,0,0],[0.855,0.145,0],[1,0.5,0],[0.855,0.855,0],[0.5,1,0],[0.145,0.855,0],[0,0.5,0]];shape=mxgraph.bpmn.event;html=1;verticalLabelPosition=bottom;labelBackgroundColor=#ffffff;verticalAlign=top;align=center;perimeter=ellipsePerimeter;outlineConnect=0;aspect=fixed;outline=standard;symbol=general;fillColor=#fff2cc;strokeColor=#d6b656;" parent="1" vertex="1">
                    <mxGeometry x="660" y="105" width="50" height="50" as="geometry"/>
                </mxCell>
                <mxCell id="18" value="" style="edgeStyle=none;html=1;shape=link;startArrow=none;endArrow=none;" parent="1" source="14" target="17" edge="1">
                    <mxGeometry relative="1" as="geometry">
                        <mxPoint x="1130" y="130" as="targetPoint"/>
                        <mxPoint x="579.9980664850646" y="129.6890787750615" as="sourcePoint"/>
                    </mxGeometry>
                </mxCell>
                <mxCell id="19" value="Aggregator &lt;br&gt;RouterV1&lt;br&gt;(smart contract)" style="points=[[0.145,0.145,0],[0.5,0,0],[0.855,0.145,0],[1,0.5,0],[0.855,0.855,0],[0.5,1,0],[0.145,0.855,0],[0,0.5,0]];shape=mxgraph.bpmn.event;html=1;verticalLabelPosition=bottom;labelBackgroundColor=#ffffff;verticalAlign=top;align=center;perimeter=ellipsePerimeter;outlineConnect=0;aspect=fixed;outline=standard;symbol=general;fillColor=#fff2cc;strokeColor=#d6b656;" parent="1" vertex="1">
                    <mxGeometry x="800" y="105" width="50" height="50" as="geometry"/>
                </mxCell>
                <mxCell id="20" value="" style="edgeStyle=none;html=1;shape=link;startArrow=none;endArrow=none;" parent="1" source="17" target="19" edge="1">
                    <mxGeometry relative="1" as="geometry">
                        <mxPoint x="1130" y="130" as="targetPoint"/>
                        <mxPoint x="709.996769683599" y="129.59812267389714" as="sourcePoint"/>
                    </mxGeometry>
                </mxCell>
                <mxCell id="21" value="FastApi Integration" style="points=[[0.145,0.145,0],[0.5,0,0],[0.855,0.145,0],[1,0.5,0],[0.855,0.855,0],[0.5,1,0],[0.145,0.855,0],[0,0.5,0]];shape=mxgraph.bpmn.event;html=1;verticalLabelPosition=bottom;labelBackgroundColor=#ffffff;verticalAlign=top;align=center;perimeter=ellipsePerimeter;outlineConnect=0;aspect=fixed;outline=standard;symbol=general;fillColor=#004C99;" parent="1" vertex="1">
                    <mxGeometry x="800" y="300" width="50" height="50" as="geometry"/>
                </mxCell>
                <mxCell id="22" value="" style="edgeStyle=none;html=1;shape=link;startArrow=none;endArrow=none;" parent="1" source="19" target="21" edge="1">
                    <mxGeometry relative="1" as="geometry">
                        <mxPoint x="825" y="330" as="targetPoint"/>
                        <mxPoint x="850" y="130" as="sourcePoint"/>
                        <Array as="points">
                            <mxPoint x="960" y="130"/>
                            <mxPoint x="960" y="325"/>
                        </Array>
                    </mxGeometry>
                </mxCell>
                <mxCell id="24" value="" style="edgeStyle=none;html=1;shape=link;startArrow=none;endArrow=none;exitX=0;exitY=0.5;exitDx=0;exitDy=0;exitPerimeter=0;" parent="1" source="31" target="35" edge="1">
                    <mxGeometry relative="1" as="geometry">
                        <mxPoint x="134" y="325" as="targetPoint"/>
                        <mxPoint x="719.9999999999959" y="140" as="sourcePoint"/>
                    </mxGeometry>
                </mxCell>
                <mxCell id="25" value="Celery integration&lt;br&gt;( Daemonizing &lt;br&gt;Background tasks )" style="points=[[0.145,0.145,0],[0.5,0,0],[0.855,0.145,0],[1,0.5,0],[0.855,0.855,0],[0.5,1,0],[0.145,0.855,0],[0,0.5,0]];shape=mxgraph.bpmn.event;html=1;verticalLabelPosition=bottom;labelBackgroundColor=#ffffff;verticalAlign=top;align=center;perimeter=ellipsePerimeter;outlineConnect=0;aspect=fixed;outline=standard;symbol=general;fillColor=#004C99;" parent="1" vertex="1">
                    <mxGeometry x="670" y="300" width="50" height="50" as="geometry"/>
                </mxCell>
                <mxCell id="26" value="" style="edgeStyle=none;html=1;shape=link;startArrow=none;endArrow=none;exitX=0;exitY=0.5;exitDx=0;exitDy=0;exitPerimeter=0;" parent="1" source="21" target="25" edge="1">
                    <mxGeometry relative="1" as="geometry">
                        <mxPoint x="134" y="324.9999999999999" as="targetPoint"/>
                        <mxPoint x="800" y="324.9999999999999" as="sourcePoint"/>
                    </mxGeometry>
                </mxCell>
                <mxCell id="27" value="Multi-threading crawler" style="points=[[0.145,0.145,0],[0.5,0,0],[0.855,0.145,0],[1,0.5,0],[0.855,0.855,0],[0.5,1,0],[0.145,0.855,0],[0,0.5,0]];shape=mxgraph.bpmn.event;html=1;verticalLabelPosition=bottom;labelBackgroundColor=#ffffff;verticalAlign=top;align=center;perimeter=ellipsePerimeter;outlineConnect=0;aspect=fixed;outline=standard;symbol=general;fillColor=#004C99;" parent="1" vertex="1">
                    <mxGeometry x="540" y="300" width="50" height="50" as="geometry"/>
                </mxCell>
                <mxCell id="28" value="" style="edgeStyle=none;html=1;shape=link;startArrow=none;endArrow=none;exitX=0;exitY=0.5;exitDx=0;exitDy=0;exitPerimeter=0;" parent="1" source="25" target="27" edge="1">
                    <mxGeometry relative="1" as="geometry">
                        <mxPoint x="134" y="324.9999999999999" as="targetPoint"/>
                        <mxPoint x="670" y="324.9999999999999" as="sourcePoint"/>
                    </mxGeometry>
                </mxCell>
                <mxCell id="29" value="&lt;b&gt;Aggregator V2&lt;/b&gt;" style="points=[[0.145,0.145,0],[0.5,0,0],[0.855,0.145,0],[1,0.5,0],[0.855,0.855,0],[0.5,1,0],[0.145,0.855,0],[0,0.5,0]];shape=mxgraph.bpmn.event;html=1;verticalLabelPosition=bottom;labelBackgroundColor=#ffffff;verticalAlign=top;align=center;perimeter=ellipsePerimeter;outlineConnect=0;aspect=fixed;outline=standard;symbol=general;fillColor=#f5f5f5;fontColor=#333333;strokeColor=#666666;" parent="1" vertex="1">
                    <mxGeometry x="410" y="300" width="50" height="50" as="geometry"/>
                </mxCell>
                <mxCell id="30" value="" style="edgeStyle=none;html=1;shape=link;startArrow=none;endArrow=none;exitX=0;exitY=0.5;exitDx=0;exitDy=0;exitPerimeter=0;" parent="1" source="27" target="29" edge="1">
                    <mxGeometry relative="1" as="geometry">
                        <mxPoint x="134" y="324.9999999999999" as="targetPoint"/>
                        <mxPoint x="540" y="324.9999999999999" as="sourcePoint"/>
                    </mxGeometry>
                </mxCell>
                <mxCell id="31" value="CI/CD pipeline on&amp;nbsp;&lt;br&gt;AWS EC2" style="points=[[0.145,0.145,0],[0.5,0,0],[0.855,0.145,0],[1,0.5,0],[0.855,0.855,0],[0.5,1,0],[0.145,0.855,0],[0,0.5,0]];shape=mxgraph.bpmn.event;html=1;verticalLabelPosition=bottom;labelBackgroundColor=#ffffff;verticalAlign=top;align=center;perimeter=ellipsePerimeter;outlineConnect=0;aspect=fixed;outline=standard;symbol=general;fillColor=#99004D;" parent="1" vertex="1">
                    <mxGeometry x="280" y="300" width="50" height="50" as="geometry"/>
                </mxCell>
                <mxCell id="33" value="" style="edgeStyle=none;html=1;shape=link;startArrow=none;endArrow=none;exitX=0;exitY=0.5;exitDx=0;exitDy=0;exitPerimeter=0;" parent="1" source="29" target="31" edge="1">
                    <mxGeometry relative="1" as="geometry">
                        <mxPoint x="134" y="324.9999999999999" as="targetPoint"/>
                        <mxPoint x="410" y="324.9999999999999" as="sourcePoint"/>
                    </mxGeometry>
                </mxCell>
                <mxCell id="35" value="Complete&lt;br&gt;Production&lt;br&gt;Infrastructure&amp;nbsp;" style="sketch=0;aspect=fixed;html=1;points=[];align=center;image;fontSize=12;image=img/lib/mscae/Quick_Start_Center.svg;" parent="1" vertex="1">
                    <mxGeometry x="109" y="299.9999999999999" width="50" height="50" as="geometry"/>
                </mxCell>
                <mxCell id="36" value="" style="edgeStyle=none;html=1;shape=link;startArrow=none;endArrow=none;entryX=-0.097;entryY=0.527;entryDx=0;entryDy=0;entryPerimeter=0;" parent="1" source="37" target="35" edge="1">
                    <mxGeometry relative="1" as="geometry">
                        <mxPoint x="169" y="334.9999999999999" as="targetPoint"/>
                        <mxPoint x="955" y="500" as="sourcePoint"/>
                        <Array as="points">
                            <mxPoint x="50" y="495"/>
                            <mxPoint x="50" y="326"/>
                        </Array>
                    </mxGeometry>
                </mxCell>
                <mxCell id="37" value="Deployment&amp;nbsp;&lt;br&gt;Integration&lt;br&gt;Batchreader&amp;nbsp;&lt;br&gt;(Smart Contract)" style="points=[[0.145,0.145,0],[0.5,0,0],[0.855,0.145,0],[1,0.5,0],[0.855,0.855,0],[0.5,1,0],[0.145,0.855,0],[0,0.5,0]];shape=mxgraph.bpmn.event;html=1;verticalLabelPosition=bottom;labelBackgroundColor=#ffffff;verticalAlign=top;align=center;perimeter=ellipsePerimeter;outlineConnect=0;aspect=fixed;outline=standard;symbol=general;fillColor=#f5f5f5;fontColor=#333333;strokeColor=#666666;" parent="1" vertex="1">
                    <mxGeometry x="70" y="470" width="50" height="50" as="geometry"/>
                </mxCell>
                <mxCell id="39" value="" style="edgeStyle=none;html=1;shape=link;startArrow=none;endArrow=none;entryX=1;entryY=0.5;entryDx=0;entryDy=0;entryPerimeter=0;" parent="1" source="69" target="37" edge="1">
                    <mxGeometry relative="1" as="geometry">
                        <mxPoint x="20" y="580" as="targetPoint"/>
                        <mxPoint x="955" y="500" as="sourcePoint"/>
                        <Array as="points"/>
                    </mxGeometry>
                </mxCell>
                <mxCell id="40" value="Obtimising &lt;br&gt;Aggregator&lt;br&gt;Logic&lt;br&gt;( reduced &lt;br&gt;response time&lt;br&gt;&amp;nbsp;by 5s)" style="points=[[0.145,0.145,0],[0.5,0,0],[0.855,0.145,0],[1,0.5,0],[0.855,0.855,0],[0.5,1,0],[0.145,0.855,0],[0,0.5,0]];shape=mxgraph.bpmn.event;html=1;verticalLabelPosition=bottom;labelBackgroundColor=#ffffff;verticalAlign=top;align=center;perimeter=ellipsePerimeter;outlineConnect=0;aspect=fixed;outline=standard;symbol=general;fillColor=#004C99;" parent="1" vertex="1">
                    <mxGeometry x="280" y="470" width="50" height="50" as="geometry"/>
                </mxCell>
                <mxCell id="41" value="" style="edgeStyle=none;html=1;shape=link;startArrow=none;endArrow=none;entryX=1;entryY=0.5;entryDx=0;entryDy=0;entryPerimeter=0;" parent="1" source="42" target="40" edge="1">
                    <mxGeometry relative="1" as="geometry">
                        <mxPoint x="159" y="495" as="targetPoint"/>
                        <mxPoint x="955" y="500" as="sourcePoint"/>
                        <Array as="points"/>
                    </mxGeometry>
                </mxCell>
                <mxCell id="42" value="Reduced&amp;nbsp;&lt;br&gt;Resource usage" style="points=[[0.145,0.145,0],[0.5,0,0],[0.855,0.145,0],[1,0.5,0],[0.855,0.855,0],[0.5,1,0],[0.145,0.855,0],[0,0.5,0]];shape=mxgraph.bpmn.event;html=1;verticalLabelPosition=bottom;labelBackgroundColor=#ffffff;verticalAlign=top;align=center;perimeter=ellipsePerimeter;outlineConnect=0;aspect=fixed;outline=standard;symbol=general;fillColor=#99004D;" parent="1" vertex="1">
                    <mxGeometry x="410" y="470" width="50" height="50" as="geometry"/>
                </mxCell>
                <mxCell id="43" value="" style="edgeStyle=none;html=1;shape=link;startArrow=none;endArrow=none;entryX=1;entryY=0.5;entryDx=0;entryDy=0;entryPerimeter=0;" parent="1" source="44" target="42" edge="1">
                    <mxGeometry relative="1" as="geometry">
                        <mxPoint x="330" y="495" as="targetPoint"/>
                        <mxPoint x="955" y="500" as="sourcePoint"/>
                        <Array as="points"/>
                    </mxGeometry>
                </mxCell>
                <mxCell id="44" value="Aggregator&lt;br&gt;RouterV2&lt;br&gt;(smart contract)" style="points=[[0.145,0.145,0],[0.5,0,0],[0.855,0.145,0],[1,0.5,0],[0.855,0.855,0],[0.5,1,0],[0.145,0.855,0],[0,0.5,0]];shape=mxgraph.bpmn.event;html=1;verticalLabelPosition=bottom;labelBackgroundColor=#ffffff;verticalAlign=top;align=center;perimeter=ellipsePerimeter;outlineConnect=0;aspect=fixed;outline=standard;symbol=general;fillColor=#f5f5f5;fontColor=#333333;strokeColor=#666666;" parent="1" vertex="1">
                    <mxGeometry x="540" y="470" width="50" height="50" as="geometry"/>
                </mxCell>
                <mxCell id="45" value="" style="edgeStyle=none;html=1;shape=link;startArrow=none;endArrow=none;entryX=1;entryY=0.5;entryDx=0;entryDy=0;entryPerimeter=0;" parent="1" source="46" target="44" edge="1">
                    <mxGeometry relative="1" as="geometry">
                        <mxPoint x="460" y="495" as="targetPoint"/>
                        <mxPoint x="955" y="500" as="sourcePoint"/>
                        <Array as="points"/>
                    </mxGeometry>
                </mxCell>
                <mxCell id="46" value="Gas &lt;br&gt;Reduction&lt;br&gt;&amp;nbsp;module" style="points=[[0.145,0.145,0],[0.5,0,0],[0.855,0.145,0],[1,0.5,0],[0.855,0.855,0],[0.5,1,0],[0.145,0.855,0],[0,0.5,0]];shape=mxgraph.bpmn.event;html=1;verticalLabelPosition=bottom;labelBackgroundColor=#ffffff;verticalAlign=top;align=center;perimeter=ellipsePerimeter;outlineConnect=0;aspect=fixed;outline=standard;symbol=general;fillColor=#fff2cc;strokeColor=#d6b656;" parent="1" vertex="1">
                    <mxGeometry x="670" y="470" width="50" height="50" as="geometry"/>
                </mxCell>
                <mxCell id="47" value="" style="edgeStyle=none;html=1;shape=link;startArrow=none;endArrow=none;entryX=1;entryY=0.5;entryDx=0;entryDy=0;entryPerimeter=0;" parent="1" source="53" target="46" edge="1">
                    <mxGeometry relative="1" as="geometry">
                        <mxPoint x="590" y="495" as="targetPoint"/>
                        <mxPoint x="955" y="495" as="sourcePoint"/>
                        <Array as="points"/>
                    </mxGeometry>
                </mxCell>
                <mxCell id="53" value="Transaction &lt;br&gt;Calldata&amp;nbsp;&lt;br&gt;packing" style="points=[[0.145,0.145,0],[0.5,0,0],[0.855,0.145,0],[1,0.5,0],[0.855,0.855,0],[0.5,1,0],[0.145,0.855,0],[0,0.5,0]];shape=mxgraph.bpmn.event;html=1;verticalLabelPosition=bottom;labelBackgroundColor=#ffffff;verticalAlign=top;align=center;perimeter=ellipsePerimeter;outlineConnect=0;aspect=fixed;outline=standard;symbol=general;fillColor=#004C99;" parent="1" vertex="1">
                    <mxGeometry x="800" y="470" width="50" height="50" as="geometry"/>
                </mxCell>
                <mxCell id="54" value="" style="edgeStyle=none;html=1;shape=link;startArrow=none;endArrow=none;entryX=1;entryY=0.5;entryDx=0;entryDy=0;entryPerimeter=0;exitX=1.133;exitY=0.66;exitDx=0;exitDy=0;exitPerimeter=0;" parent="1" source="56" target="53" edge="1">
                    <mxGeometry relative="1" as="geometry">
                        <mxPoint x="720" y="495" as="targetPoint"/>
                        <mxPoint x="955" y="495" as="sourcePoint"/>
                        <Array as="points">
                            <mxPoint x="960" y="713"/>
                            <mxPoint x="960" y="495"/>
                        </Array>
                    </mxGeometry>
                </mxCell>
                <mxCell id="56" value="Complete&lt;br&gt;Aggregator V2 &lt;br&gt;on production&amp;nbsp; &amp;nbsp;" style="sketch=0;aspect=fixed;html=1;points=[];align=center;image;fontSize=12;image=img/lib/mscae/Quick_Start_Center.svg;" parent="1" vertex="1">
                    <mxGeometry x="800" y="680" width="50" height="50" as="geometry"/>
                </mxCell>
                <mxCell id="58" value="Multicall&lt;br&gt;Delpoyment&lt;br&gt;(Smart Contract)" style="points=[[0.145,0.145,0],[0.5,0,0],[0.855,0.145,0],[1,0.5,0],[0.855,0.855,0],[0.5,1,0],[0.145,0.855,0],[0,0.5,0]];shape=mxgraph.bpmn.event;html=1;verticalLabelPosition=bottom;labelBackgroundColor=#ffffff;verticalAlign=top;align=center;perimeter=ellipsePerimeter;outlineConnect=0;aspect=fixed;outline=standard;symbol=general;fillColor=#fff2cc;strokeColor=#d6b656;" parent="1" vertex="1">
                    <mxGeometry x="670" y="690" width="50" height="50" as="geometry"/>
                </mxCell>
                <mxCell id="59" value="" style="edgeStyle=none;html=1;shape=link;startArrow=none;endArrow=none;exitX=0;exitY=0.71;exitDx=0;exitDy=0;exitPerimeter=0;" parent="1" source="56" target="58" edge="1">
                    <mxGeometry relative="1" as="geometry">
                        <mxPoint x="40" y="715" as="targetPoint"/>
                        <mxPoint x="800" y="715.4999999999998" as="sourcePoint"/>
                        <Array as="points"/>
                    </mxGeometry>
                </mxCell>
                <mxCell id="60" value="Clustering &lt;br&gt;Workload&lt;br&gt;(Kubernetese)" style="points=[[0.145,0.145,0],[0.5,0,0],[0.855,0.145,0],[1,0.5,0],[0.855,0.855,0],[0.5,1,0],[0.145,0.855,0],[0,0.5,0]];shape=mxgraph.bpmn.event;html=1;verticalLabelPosition=bottom;labelBackgroundColor=#ffffff;verticalAlign=top;align=center;perimeter=ellipsePerimeter;outlineConnect=0;aspect=fixed;outline=standard;symbol=general;fillColor=#99004D;" parent="1" vertex="1">
                    <mxGeometry x="540" y="690" width="50" height="50" as="geometry"/>
                </mxCell>
                <mxCell id="61" value="" style="edgeStyle=none;html=1;shape=link;startArrow=none;endArrow=none;exitX=0;exitY=0.5;exitDx=0;exitDy=0;exitPerimeter=0;" parent="1" source="58" target="60" edge="1">
                    <mxGeometry relative="1" as="geometry">
                        <mxPoint x="40" y="715" as="targetPoint"/>
                        <mxPoint x="670" y="715" as="sourcePoint"/>
                        <Array as="points"/>
                    </mxGeometry>
                </mxCell>
                <mxCell id="62" value="FrontEnd&amp;nbsp;&lt;br&gt;Integration&lt;br&gt;with other Chains" style="points=[[0.145,0.145,0],[0.5,0,0],[0.855,0.145,0],[1,0.5,0],[0.855,0.855,0],[0.5,1,0],[0.145,0.855,0],[0,0.5,0]];shape=mxgraph.bpmn.event;html=1;verticalLabelPosition=bottom;labelBackgroundColor=#ffffff;verticalAlign=top;align=center;perimeter=ellipsePerimeter;outlineConnect=0;aspect=fixed;outline=standard;symbol=general;fillColor=#E5CCFF;" parent="1" vertex="1">
                    <mxGeometry x="410" y="690" width="50" height="50" as="geometry"/>
                </mxCell>
                <mxCell id="63" value="" style="edgeStyle=none;html=1;shape=link;startArrow=none;endArrow=none;exitX=0;exitY=0.5;exitDx=0;exitDy=0;exitPerimeter=0;" parent="1" source="60" target="62" edge="1">
                    <mxGeometry relative="1" as="geometry">
                        <mxPoint x="40" y="715" as="targetPoint"/>
                        <mxPoint x="540" y="715" as="sourcePoint"/>
                        <Array as="points"/>
                    </mxGeometry>
                </mxCell>
                <mxCell id="64" value="Aggregation &lt;br&gt;of other&lt;br&gt;Aggregator&lt;br&gt;(Extra Service)" style="points=[[0.145,0.145,0],[0.5,0,0],[0.855,0.145,0],[1,0.5,0],[0.855,0.855,0],[0.5,1,0],[0.145,0.855,0],[0,0.5,0]];shape=mxgraph.bpmn.event;html=1;verticalLabelPosition=bottom;labelBackgroundColor=#ffffff;verticalAlign=top;align=center;perimeter=ellipsePerimeter;outlineConnect=0;aspect=fixed;outline=standard;symbol=general;fillColor=#004C99;" parent="1" vertex="1">
                    <mxGeometry x="280" y="690" width="50" height="50" as="geometry"/>
                </mxCell>
                <mxCell id="65" value="" style="edgeStyle=none;html=1;shape=link;startArrow=none;endArrow=none;exitX=0;exitY=0.5;exitDx=0;exitDy=0;exitPerimeter=0;" parent="1" source="62" target="64" edge="1">
                    <mxGeometry relative="1" as="geometry">
                        <mxPoint x="40" y="715" as="targetPoint"/>
                        <mxPoint x="410" y="715" as="sourcePoint"/>
                        <Array as="points"/>
                    </mxGeometry>
                </mxCell>
                <mxCell id="66" value="Aggregation &lt;br&gt;of&lt;br&gt;beethoven-x&lt;br&gt;Dex&amp;nbsp;&lt;br&gt;(BalancerV2)" style="points=[[0.145,0.145,0],[0.5,0,0],[0.855,0.145,0],[1,0.5,0],[0.855,0.855,0],[0.5,1,0],[0.145,0.855,0],[0,0.5,0]];shape=mxgraph.bpmn.event;html=1;verticalLabelPosition=bottom;labelBackgroundColor=#ffffff;verticalAlign=top;align=center;perimeter=ellipsePerimeter;outlineConnect=0;aspect=fixed;outline=standard;symbol=general;fillColor=#004C99;" parent="1" vertex="1">
                    <mxGeometry x="150" y="690" width="50" height="50" as="geometry"/>
                </mxCell>
                <mxCell id="67" value="" style="edgeStyle=none;html=1;shape=link;startArrow=none;endArrow=none;exitX=0;exitY=0.5;exitDx=0;exitDy=0;exitPerimeter=0;" parent="1" source="64" target="66" edge="1">
                    <mxGeometry relative="1" as="geometry">
                        <mxPoint x="40" y="715" as="targetPoint"/>
                        <mxPoint x="280" y="715" as="sourcePoint"/>
                        <Array as="points"/>
                    </mxGeometry>
                </mxCell>
                <mxCell id="69" value="Aggregating&amp;nbsp;&lt;br&gt;- Curve.fi&lt;br&gt;- FrozenYougert&lt;br&gt;- Soulswap" style="points=[[0.145,0.145,0],[0.5,0,0],[0.855,0.145,0],[1,0.5,0],[0.855,0.855,0],[0.5,1,0],[0.145,0.855,0],[0,0.5,0]];shape=mxgraph.bpmn.event;html=1;verticalLabelPosition=bottom;labelBackgroundColor=#ffffff;verticalAlign=top;align=center;perimeter=ellipsePerimeter;outlineConnect=0;aspect=fixed;outline=standard;symbol=general;fillColor=#004C99;" parent="1" vertex="1">
                    <mxGeometry x="180" y="470" width="50" height="50" as="geometry"/>
                </mxCell>
                <mxCell id="71" value="" style="edgeStyle=none;html=1;shape=link;startArrow=none;endArrow=none;entryX=1;entryY=0.5;entryDx=0;entryDy=0;entryPerimeter=0;" parent="1" source="40" target="69" edge="1">
                    <mxGeometry relative="1" as="geometry">
                        <mxPoint x="120" y="495" as="targetPoint"/>
                        <mxPoint x="280" y="495" as="sourcePoint"/>
                        <Array as="points"/>
                    </mxGeometry>
                </mxCell>
                <mxCell id="72" value="&lt;p style=&quot;margin: 0px ; margin-top: 10px ; margin-left: 10px ; text-align: left&quot;&gt;&lt;b&gt;Stress Test&amp;nbsp;&lt;/b&gt;&lt;/p&gt;&lt;p style=&quot;margin: 0px ; margin-top: 10px ; margin-left: 10px ; text-align: left&quot;&gt;&lt;b&gt;Function Test&lt;/b&gt;&lt;/p&gt;" style="shape=note;size=15;spacingLeft=5;html=1;overflow=fill;whiteSpace=wrap;" vertex="1" parent="1">
                    <mxGeometry x="400" y="-40" width="96" height="80" as="geometry"/>
                </mxCell>
                <mxCell id="74" value="" style="rounded=0;endArrow=none;dashed=1;html=1;entryX=0.855;entryY=0.145;entryDx=0;entryDy=0;entryPerimeter=0;" edge="1" source="72" target="12" parent="1">
                    <mxGeometry relative="1" as="geometry">
                        <mxPoint x="490" y="140" as="targetPoint"/>
                    </mxGeometry>
                </mxCell>
                <mxCell id="75" value="&lt;p style=&quot;margin: 0px ; margin-top: 10px ; margin-left: 10px ; text-align: left&quot;&gt;&lt;b&gt;Stress Test&amp;nbsp;&lt;/b&gt;&lt;/p&gt;&lt;p style=&quot;margin: 0px ; margin-top: 10px ; margin-left: 10px ; text-align: left&quot;&gt;&lt;b&gt;Function Test&lt;/b&gt;&lt;/p&gt;&lt;p style=&quot;margin: 0px ; margin-top: 10px ; margin-left: 10px ; text-align: left&quot;&gt;&lt;b&gt;Security Test&lt;/b&gt;&lt;/p&gt;" style="shape=note;size=15;spacingLeft=5;html=1;overflow=fill;whiteSpace=wrap;" vertex="1" parent="1">
                    <mxGeometry x="870" y="10" width="96" height="80" as="geometry"/>
                </mxCell>
                <mxCell id="76" value="" style="rounded=0;endArrow=none;dashed=1;html=1;entryX=1;entryY=0.5;entryDx=0;entryDy=0;entryPerimeter=0;exitX=0.5;exitY=1;exitDx=0;exitDy=0;exitPerimeter=0;" edge="1" parent="1" source="75" target="19">
                    <mxGeometry relative="1" as="geometry">
                        <mxPoint x="462.75" y="122.25" as="targetPoint"/>
                        <mxPoint x="459.6926503340758" y="50" as="sourcePoint"/>
                    </mxGeometry>
                </mxCell>
                <mxCell id="78" value="&lt;p style=&quot;margin: 0px ; margin-top: 10px ; margin-left: 10px ; text-align: left&quot;&gt;&lt;b&gt;Load Test&lt;/b&gt;&lt;/p&gt;&lt;p style=&quot;margin: 0px ; margin-top: 10px ; margin-left: 10px ; text-align: left&quot;&gt;&lt;b&gt;Stability Test&lt;/b&gt;&lt;/p&gt;" style="shape=note;size=15;spacingLeft=5;html=1;overflow=fill;whiteSpace=wrap;" vertex="1" parent="1">
                    <mxGeometry x="600" y="-10" width="96" height="80" as="geometry"/>
                </mxCell>
                <mxCell id="79" value="" style="rounded=0;endArrow=none;dashed=1;html=1;entryX=1;entryY=0.5;entryDx=0;entryDy=0;entryPerimeter=0;exitX=0.5;exitY=1;exitDx=0;exitDy=0;exitPerimeter=0;" edge="1" source="78" parent="1" target="14">
                    <mxGeometry relative="1" as="geometry">
                        <mxPoint x="580" y="110" as="targetPoint"/>
                        <mxPoint x="189.69265033407578" y="30" as="sourcePoint"/>
                    </mxGeometry>
                </mxCell>
                <mxCell id="80" value="&lt;p style=&quot;margin: 0px ; margin-top: 10px ; margin-left: 10px ; text-align: left&quot;&gt;&lt;b&gt;Stability Test&lt;/b&gt;&lt;/p&gt;&lt;p style=&quot;margin: 0px ; margin-top: 10px ; margin-left: 10px ; text-align: left&quot;&gt;&lt;b&gt;Functional Test&lt;/b&gt;&lt;/p&gt;" style="shape=note;size=15;spacingLeft=5;html=1;overflow=fill;whiteSpace=wrap;" vertex="1" parent="1">
                    <mxGeometry x="910" y="360" width="96" height="80" as="geometry"/>
                </mxCell>
                <mxCell id="81" value="" style="rounded=0;endArrow=none;dashed=1;html=1;entryX=0.855;entryY=0.855;entryDx=0;entryDy=0;entryPerimeter=0;exitX=0;exitY=0.5;exitDx=0;exitDy=0;exitPerimeter=0;" edge="1" source="80" parent="1" target="25">
                    <mxGeometry relative="1" as="geometry">
                        <mxPoint x="890" y="480" as="targetPoint"/>
                        <mxPoint x="499.6926503340758" y="400" as="sourcePoint"/>
                    </mxGeometry>
                </mxCell>
                <mxCell id="84" value="" style="rounded=0;endArrow=none;dashed=1;html=1;entryX=0.855;entryY=0.855;entryDx=0;entryDy=0;entryPerimeter=0;exitX=0;exitY=0.5;exitDx=0;exitDy=0;exitPerimeter=0;" edge="1" parent="1" source="80" target="21">
                    <mxGeometry relative="1" as="geometry">
                        <mxPoint x="722.75" y="352.75" as="targetPoint"/>
                        <mxPoint x="920" y="410" as="sourcePoint"/>
                    </mxGeometry>
                </mxCell>
                <mxCell id="85" value="&lt;p style=&quot;margin: 0px ; margin-top: 10px ; margin-left: 10px ; text-align: left&quot;&gt;&lt;b&gt;Stress Test&amp;nbsp;&lt;/b&gt;&lt;/p&gt;&lt;p style=&quot;margin: 0px ; margin-top: 10px ; margin-left: 10px ; text-align: left&quot;&gt;&lt;b&gt;Function Test&lt;/b&gt;&lt;/p&gt;&lt;p style=&quot;margin: 0px ; margin-top: 10px ; margin-left: 10px ; text-align: left&quot;&gt;&lt;b&gt;Security Test&lt;/b&gt;&lt;/p&gt;&lt;p style=&quot;margin: 0px ; margin-top: 10px ; margin-left: 10px ; text-align: left&quot;&gt;&lt;b&gt;Stability Test&lt;/b&gt;&lt;b&gt;&lt;br&gt;&lt;/b&gt;&lt;/p&gt;" style="shape=note;size=15;spacingLeft=5;html=1;overflow=fill;whiteSpace=wrap;" vertex="1" parent="1">
                    <mxGeometry x="179" y="200" width="96" height="100" as="geometry"/>
                </mxCell>
                <mxCell id="86" value="" style="rounded=0;endArrow=none;dashed=1;html=1;entryX=0.145;entryY=0.145;entryDx=0;entryDy=0;entryPerimeter=0;exitX=0.5;exitY=1;exitDx=0;exitDy=0;exitPerimeter=0;" edge="1" source="85" parent="1" target="31">
                    <mxGeometry relative="1" as="geometry">
                        <mxPoint x="159" y="320" as="targetPoint"/>
                        <mxPoint x="-231.30734966592422" y="240" as="sourcePoint"/>
                    </mxGeometry>
                </mxCell>
                <mxCell id="87" value="" style="rounded=0;endArrow=none;dashed=1;html=1;entryX=0.855;entryY=0.145;entryDx=0;entryDy=0;entryPerimeter=0;exitX=0;exitY=0.5;exitDx=0;exitDy=0;exitPerimeter=0;" edge="1" parent="1" source="80" target="44">
                    <mxGeometry relative="1" as="geometry">
                        <mxPoint x="722.75" y="352.75" as="targetPoint"/>
                        <mxPoint x="920" y="410" as="sourcePoint"/>
                    </mxGeometry>
                </mxCell>
                <mxCell id="88" value="&lt;p style=&quot;margin: 0px ; margin-top: 10px ; margin-left: 10px ; text-align: left&quot;&gt;&lt;br&gt;&lt;/p&gt;&lt;p style=&quot;margin: 0px ; margin-top: 10px ; margin-left: 10px ; text-align: left&quot;&gt;&lt;b&gt;Functional Test&lt;/b&gt;&lt;/p&gt;" style="shape=note;size=15;spacingLeft=5;html=1;overflow=fill;whiteSpace=wrap;" vertex="1" parent="1">
                    <mxGeometry x="1030" y="790" width="72.75" height="80" as="geometry"/>
                </mxCell>
                <mxCell id="89" value="" style="rounded=0;endArrow=none;dashed=1;html=1;entryX=0.855;entryY=0.855;entryDx=0;entryDy=0;entryPerimeter=0;exitX=0;exitY=0.5;exitDx=0;exitDy=0;exitPerimeter=0;" edge="1" source="88" parent="1" target="58">
                    <mxGeometry relative="1" as="geometry">
                        <mxPoint x="650" y="830" as="targetPoint"/>
                        <mxPoint x="727.25" y="897.25" as="sourcePoint"/>
                        <Array as="points">
                            <mxPoint x="800" y="830"/>
                        </Array>
                    </mxGeometry>
                </mxCell>
                <mxCell id="90" value="Colors" style="swimlane;fontStyle=0;childLayout=stackLayout;horizontal=1;startSize=26;fillColor=default;horizontalStack=0;resizeParent=1;resizeParentMax=0;resizeLast=0;collapsible=1;marginBottom=0;swimlaneFillColor=default;" vertex="1" parent="1">
                    <mxGeometry x="-170" y="944" width="140" height="156" as="geometry"/>
                </mxCell>
                <mxCell id="91" value="New Version " style="text;strokeColor=none;fillColor=none;align=left;verticalAlign=top;spacingLeft=4;spacingRight=4;overflow=hidden;rotatable=0;points=[[0,0.5],[1,0.5]];portConstraint=eastwest;fontColor=#FFDFBF;" vertex="1" parent="90">
                    <mxGeometry y="26" width="140" height="26" as="geometry"/>
                </mxCell>
                <mxCell id="92" value="Smart Contract - Solidity" style="text;strokeColor=none;fillColor=none;align=left;verticalAlign=top;spacingLeft=4;spacingRight=4;overflow=hidden;rotatable=0;points=[[0,0.5],[1,0.5]];portConstraint=eastwest;fontColor=#999900;" vertex="1" parent="90">
                    <mxGeometry y="52" width="140" height="26" as="geometry"/>
                </mxCell>
                <mxCell id="93" value="Backend - Python" style="text;strokeColor=none;fillColor=none;align=left;verticalAlign=top;spacingLeft=4;spacingRight=4;overflow=hidden;rotatable=0;points=[[0,0.5],[1,0.5]];portConstraint=eastwest;fontColor=#004C99;" vertex="1" parent="90">
                    <mxGeometry y="78" width="140" height="26" as="geometry"/>
                </mxCell>
                <mxCell id="94" value="Infrastructure - Server" style="text;strokeColor=none;fillColor=none;align=left;verticalAlign=top;spacingLeft=4;spacingRight=4;overflow=hidden;rotatable=0;points=[[0,0.5],[1,0.5]];portConstraint=eastwest;fontColor=#99004D;" vertex="1" parent="90">
                    <mxGeometry y="104" width="140" height="26" as="geometry"/>
                </mxCell>
                <mxCell id="95" value="Others" style="text;strokeColor=none;fillColor=none;align=left;verticalAlign=top;spacingLeft=4;spacingRight=4;overflow=hidden;rotatable=0;points=[[0,0.5],[1,0.5]];portConstraint=eastwest;fontColor=#E5CCFF;" vertex="1" parent="90">
                    <mxGeometry y="130" width="140" height="26" as="geometry"/>
                </mxCell>
                <mxCell id="HZZJVPzRN93B4RXjEyNb-95" value="" style="edgeStyle=none;html=1;shape=link;startArrow=none;endArrow=none;entryX=0;entryY=0.5;entryDx=0;entryDy=0;entryPerimeter=0;exitX=0;exitY=0.5;exitDx=0;exitDy=0;exitPerimeter=0;" edge="1" parent="1" source="HZZJVPzRN93B4RXjEyNb-96" target="66">
                    <mxGeometry relative="1" as="geometry">
                        <mxPoint x="210" y="725" as="targetPoint"/>
                        <mxPoint x="140" y="950" as="sourcePoint"/>
                        <Array as="points">
                            <mxPoint x="30" y="945"/>
                            <mxPoint x="30" y="715"/>
                        </Array>
                    </mxGeometry>
                </mxCell>
                <mxCell id="HZZJVPzRN93B4RXjEyNb-96" value="Complete &lt;br&gt;replica of&lt;br&gt;Prodcution server&lt;br&gt;in a new cluster&amp;nbsp;&amp;nbsp;" style="points=[[0.145,0.145,0],[0.5,0,0],[0.855,0.145,0],[1,0.5,0],[0.855,0.855,0],[0.5,1,0],[0.145,0.855,0],[0,0.5,0]];shape=mxgraph.bpmn.event;html=1;verticalLabelPosition=bottom;labelBackgroundColor=#ffffff;verticalAlign=top;align=center;perimeter=ellipsePerimeter;outlineConnect=0;aspect=fixed;outline=standard;symbol=general;fillColor=#99004D;" vertex="1" parent="1">
                    <mxGeometry x="100" y="920" width="50" height="50" as="geometry"/>
                </mxCell>
                <mxCell id="HZZJVPzRN93B4RXjEyNb-98" value="" style="edgeStyle=none;html=1;shape=link;startArrow=none;endArrow=none;entryX=1;entryY=0.5;entryDx=0;entryDy=0;entryPerimeter=0;" edge="1" parent="1" source="HZZJVPzRN93B4RXjEyNb-99" target="HZZJVPzRN93B4RXjEyNb-96">
                    <mxGeometry relative="1" as="geometry">
                        <mxPoint x="210" y="725" as="targetPoint"/>
                        <mxPoint x="990" y="950" as="sourcePoint"/>
                        <Array as="points"/>
                    </mxGeometry>
                </mxCell>
                <mxCell id="HZZJVPzRN93B4RXjEyNb-99" value="Integrate &lt;br&gt;Kubernetese&lt;br&gt;as Default infra" style="sketch=0;aspect=fixed;html=1;points=[];align=center;image;fontSize=12;image=img/lib/mscae/Quick_Start_Center.svg;" vertex="1" parent="1">
                    <mxGeometry x="240" y="920" width="50" height="50" as="geometry"/>
                </mxCell>
                <mxCell id="HZZJVPzRN93B4RXjEyNb-100" value="" style="edgeStyle=none;html=1;shape=link;startArrow=none;endArrow=none;entryX=1;entryY=0.5;entryDx=0;entryDy=0;entryPerimeter=0;" edge="1" parent="1" source="HZZJVPzRN93B4RXjEyNb-101" target="HZZJVPzRN93B4RXjEyNb-99">
                    <mxGeometry relative="1" as="geometry">
                        <mxPoint x="150" y="945" as="targetPoint"/>
                        <mxPoint x="990" y="950" as="sourcePoint"/>
                        <Array as="points"/>
                    </mxGeometry>
                </mxCell>
                <mxCell id="HZZJVPzRN93B4RXjEyNb-101" value="Localize &lt;br&gt;Aggregator - V3" style="points=[[0.145,0.145,0],[0.5,0,0],[0.855,0.145,0],[1,0.5,0],[0.855,0.855,0],[0.5,1,0],[0.145,0.855,0],[0,0.5,0]];shape=mxgraph.bpmn.event;html=1;verticalLabelPosition=bottom;labelBackgroundColor=#ffffff;verticalAlign=top;align=center;perimeter=ellipsePerimeter;outlineConnect=0;aspect=fixed;outline=standard;symbol=general;fillColor=#99004D;" vertex="1" parent="1">
                    <mxGeometry x="380" y="920" width="50" height="50" as="geometry"/>
                </mxCell>
                <mxCell id="HZZJVPzRN93B4RXjEyNb-102" value="" style="edgeStyle=none;html=1;shape=link;startArrow=none;endArrow=none;entryX=1;entryY=0.5;entryDx=0;entryDy=0;entryPerimeter=0;" edge="1" parent="1" source="HZZJVPzRN93B4RXjEyNb-103" target="HZZJVPzRN93B4RXjEyNb-101">
                    <mxGeometry relative="1" as="geometry">
                        <mxPoint x="290" y="945" as="targetPoint"/>
                        <mxPoint x="990" y="950" as="sourcePoint"/>
                        <Array as="points"/>
                    </mxGeometry>
                </mxCell>
                <mxCell id="HZZJVPzRN93B4RXjEyNb-103" value="Rewrite&lt;br&gt;Aggregator V2" style="points=[[0.145,0.145,0],[0.5,0,0],[0.855,0.145,0],[1,0.5,0],[0.855,0.855,0],[0.5,1,0],[0.145,0.855,0],[0,0.5,0]];shape=mxgraph.bpmn.event;html=1;verticalLabelPosition=bottom;labelBackgroundColor=#ffffff;verticalAlign=top;align=center;perimeter=ellipsePerimeter;outlineConnect=0;aspect=fixed;outline=standard;symbol=general;fillColor=#004C99;" vertex="1" parent="1">
                    <mxGeometry x="520" y="920" width="50" height="50" as="geometry"/>
                </mxCell>
                <mxCell id="HZZJVPzRN93B4RXjEyNb-104" value="" style="edgeStyle=none;html=1;shape=link;startArrow=none;endArrow=none;entryX=1;entryY=0.5;entryDx=0;entryDy=0;entryPerimeter=0;" edge="1" parent="1" source="HZZJVPzRN93B4RXjEyNb-105" target="HZZJVPzRN93B4RXjEyNb-103">
                    <mxGeometry relative="1" as="geometry">
                        <mxPoint x="430" y="945" as="targetPoint"/>
                        <mxPoint x="990" y="950" as="sourcePoint"/>
                        <Array as="points"/>
                    </mxGeometry>
                </mxCell>
                <mxCell id="HZZJVPzRN93B4RXjEyNb-105" value="R&amp;amp;D on&amp;nbsp;&lt;br&gt;Better &lt;br&gt;Pathfinding +&amp;nbsp;&lt;br&gt;Portioning&lt;br&gt;solution&amp;nbsp;" style="points=[[0.145,0.145,0],[0.5,0,0],[0.855,0.145,0],[1,0.5,0],[0.855,0.855,0],[0.5,1,0],[0.145,0.855,0],[0,0.5,0]];shape=mxgraph.bpmn.event;html=1;verticalLabelPosition=bottom;labelBackgroundColor=#ffffff;verticalAlign=top;align=center;perimeter=ellipsePerimeter;outlineConnect=0;aspect=fixed;outline=standard;symbol=general;fillColor=#E5CCFF;" vertex="1" parent="1">
                    <mxGeometry x="660" y="920" width="50" height="50" as="geometry"/>
                </mxCell>
                <mxCell id="HZZJVPzRN93B4RXjEyNb-106" value="" style="edgeStyle=none;html=1;shape=link;startArrow=none;endArrow=none;entryX=1;entryY=0.5;entryDx=0;entryDy=0;entryPerimeter=0;" edge="1" parent="1" source="HZZJVPzRN93B4RXjEyNb-107" target="HZZJVPzRN93B4RXjEyNb-105">
                    <mxGeometry relative="1" as="geometry">
                        <mxPoint x="570" y="945" as="targetPoint"/>
                        <mxPoint x="990" y="945" as="sourcePoint"/>
                        <Array as="points"/>
                    </mxGeometry>
                </mxCell>
                <mxCell id="HZZJVPzRN93B4RXjEyNb-107" value="First Draft Of&lt;br&gt;Aggregator V3" style="points=[[0.145,0.145,0],[0.5,0,0],[0.855,0.145,0],[1,0.5,0],[0.855,0.855,0],[0.5,1,0],[0.145,0.855,0],[0,0.5,0]];shape=mxgraph.bpmn.event;html=1;verticalLabelPosition=bottom;labelBackgroundColor=#ffffff;verticalAlign=top;align=center;perimeter=ellipsePerimeter;outlineConnect=0;aspect=fixed;outline=standard;symbol=general;fillColor=#004C99;" vertex="1" parent="1">
                    <mxGeometry x="770" y="920" width="50" height="50" as="geometry"/>
                </mxCell>
                <mxCell id="HZZJVPzRN93B4RXjEyNb-108" value="" style="edgeStyle=none;html=1;shape=link;startArrow=none;endArrow=none;entryX=1;entryY=0.5;entryDx=0;entryDy=0;entryPerimeter=0;" edge="1" parent="1" source="HZZJVPzRN93B4RXjEyNb-109" target="HZZJVPzRN93B4RXjEyNb-107">
                    <mxGeometry relative="1" as="geometry">
                        <mxPoint x="710" y="945" as="targetPoint"/>
                        <mxPoint x="990" y="945" as="sourcePoint"/>
                        <Array as="points"/>
                    </mxGeometry>
                </mxCell>
                <mxCell id="HZZJVPzRN93B4RXjEyNb-109" value="Core functionalities&lt;br&gt;AggV3&lt;br&gt;" style="points=[[0.145,0.145,0],[0.5,0,0],[0.855,0.145,0],[1,0.5,0],[0.855,0.855,0],[0.5,1,0],[0.145,0.855,0],[0,0.5,0]];shape=mxgraph.bpmn.event;html=1;verticalLabelPosition=bottom;labelBackgroundColor=#ffffff;verticalAlign=top;align=center;perimeter=ellipsePerimeter;outlineConnect=0;aspect=fixed;outline=standard;symbol=general;fillColor=#004C99;" vertex="1" parent="1">
                    <mxGeometry x="880" y="920" width="50" height="50" as="geometry"/>
                </mxCell>
                <mxCell id="HZZJVPzRN93B4RXjEyNb-110" value="" style="edgeStyle=none;html=1;shape=link;startArrow=none;endArrow=none;entryX=1;entryY=0.5;entryDx=0;entryDy=0;entryPerimeter=0;exitX=1;exitY=0.5;exitDx=0;exitDy=0;exitPerimeter=0;" edge="1" parent="1" source="HZZJVPzRN93B4RXjEyNb-111" target="HZZJVPzRN93B4RXjEyNb-109">
                    <mxGeometry relative="1" as="geometry">
                        <mxPoint x="820" y="945" as="targetPoint"/>
                        <mxPoint x="990" y="945" as="sourcePoint"/>
                        <Array as="points">
                            <mxPoint x="970" y="1125"/>
                            <mxPoint x="970" y="945"/>
                        </Array>
                    </mxGeometry>
                </mxCell>
                <mxCell id="HZZJVPzRN93B4RXjEyNb-111" value="Core functionalities&lt;br&gt;AggV3&lt;br&gt;" style="points=[[0.145,0.145,0],[0.5,0,0],[0.855,0.145,0],[1,0.5,0],[0.855,0.855,0],[0.5,1,0],[0.145,0.855,0],[0,0.5,0]];shape=mxgraph.bpmn.event;html=1;verticalLabelPosition=bottom;labelBackgroundColor=#ffffff;verticalAlign=top;align=center;perimeter=ellipsePerimeter;outlineConnect=0;aspect=fixed;outline=standard;symbol=general;fillColor=#004C99;" vertex="1" parent="1">
                    <mxGeometry x="880" y="1100" width="50" height="50" as="geometry"/>
                </mxCell>
                <mxCell id="HZZJVPzRN93B4RXjEyNb-113" value="" style="edgeStyle=none;html=1;shape=link;startArrow=none;endArrow=none;exitX=0;exitY=0.5;exitDx=0;exitDy=0;exitPerimeter=0;" edge="1" parent="1" source="HZZJVPzRN93B4RXjEyNb-111">
                    <mxGeometry relative="1" as="geometry">
                        <mxPoint x="40" y="1125" as="targetPoint"/>
                        <mxPoint x="780" y="955" as="sourcePoint"/>
                        <Array as="points"/>
                    </mxGeometry>
                </mxCell>
            </root>
        </mxGraphModel>
    </diagram>
    <diagram id="NqIe2_o1V3fp0TTNty5G" name="Bridge">
        <mxGraphModel dx="411" dy="364" grid="1" gridSize="10" guides="1" tooltips="1" connect="1" arrows="1" fold="1" page="1" pageScale="1" pageWidth="850" pageHeight="1100" math="0" shadow="0">
            <root>
                <mxCell id="_pK3IT_rZL_2a6wpbEFk-0"/>
                <mxCell id="_pK3IT_rZL_2a6wpbEFk-1" parent="_pK3IT_rZL_2a6wpbEFk-0"/>
            </root>
        </mxGraphModel>
    </diagram>
    <diagram id="GfzAmaQkGzz6OXdZcq9p" name="Dex">
        <mxGraphModel dx="411" dy="364" grid="1" gridSize="10" guides="1" tooltips="1" connect="1" arrows="1" fold="1" page="1" pageScale="1" pageWidth="850" pageHeight="1100" math="0" shadow="0">
            <root>
                <mxCell id="gWVr19RbjNkq_WXvEtdu-0"/>
                <mxCell id="gWVr19RbjNkq_WXvEtdu-1" parent="gWVr19RbjNkq_WXvEtdu-0"/>
            </root>
        </mxGraphModel>
    </diagram>
    <diagram id="sPmn2bA6pJU6mVFKLSNT" name="Page-4">
        <mxGraphModel dx="1370" dy="1213" grid="1" gridSize="10" guides="1" tooltips="1" connect="1" arrows="1" fold="1" page="1" pageScale="1" pageWidth="850" pageHeight="1100" math="0" shadow="0">
            <root>
                <mxCell id="Kdkax1kzag5x0aaxvutm-0"/>
                <mxCell id="Kdkax1kzag5x0aaxvutm-1" parent="Kdkax1kzag5x0aaxvutm-0"/>
            </root>
        </mxGraphModel>
    </diagram>
</mxfile>